<svg width="14" height="14" viewBox="0 0 14 14" fill="none" xmlns="http://www.w3.org/2000/svg">
<path fill-rule="evenodd" clip-rule="evenodd" d="M6.78369 0.349998C6.9163 0.349998 7.04348 0.402677 7.13725 0.496445C7.23102 0.590213 7.28369 0.71739 7.28369 0.849998V3.022C7.28369 3.15461 7.23102 3.28178 7.13725 3.37555C7.04348 3.46932 6.9163 3.522 6.78369 3.522C6.65109 3.522 6.52391 3.46932 6.43014 3.37555C6.33637 3.28178 6.28369 3.15461 6.28369 3.022V1.372C5.02291 1.48411 3.83628 2.01634 2.91408 2.88334C1.99188 3.75035 1.38751 4.90191 1.19789 6.15338C1.00827 7.40486 1.24438 8.68377 1.86836 9.78504C2.49233 10.8863 3.46803 11.7462 4.63902 12.2267C5.81001 12.7073 7.10845 12.7807 8.32616 12.4353C9.54387 12.0898 10.6103 11.3455 11.3545 10.3216C12.0987 9.29771 12.4775 8.05359 12.4302 6.78871C12.3829 5.52383 11.9122 4.31146 11.0937 3.346C11.0491 3.29627 11.0149 3.2381 10.9931 3.17494C10.9714 3.11177 10.9625 3.04488 10.967 2.97822C10.9715 2.91156 10.9894 2.84649 11.0195 2.78684C11.0496 2.72719 11.0913 2.67418 11.1422 2.63094C11.1932 2.5877 11.2522 2.5551 11.316 2.53507C11.3797 2.51505 11.4468 2.508 11.5133 2.51434C11.5798 2.52069 11.6444 2.54029 11.7032 2.57201C11.762 2.60373 11.8139 2.64691 11.8557 2.699C12.8356 3.85454 13.3916 5.31006 13.4315 6.82463C13.4715 8.3392 12.993 9.822 12.0754 11.0276C11.1578 12.2332 9.85598 13.0893 8.38549 13.4542C6.91499 13.8191 5.36398 13.671 3.98916 13.0343C2.61435 12.3975 1.49818 11.3105 0.825406 9.95293C0.152629 8.5954 -0.0364161 7.04883 0.289564 5.56922C0.615544 4.08961 1.437 2.76567 2.61797 1.81655C3.79894 0.867424 5.2686 0.350027 6.78369 0.349998ZM7.54369 7.58L10.0597 4.073C10.0932 4.02486 10.1087 3.96647 10.1035 3.90805C10.0983 3.84963 10.0727 3.7949 10.0313 3.75343C9.98979 3.71196 9.93506 3.68639 9.87664 3.68119C9.81822 3.67599 9.75984 3.6915 9.71169 3.725L6.20269 6.24C6.08979 6.32128 5.99591 6.42614 5.92754 6.5473C5.85917 6.66846 5.81795 6.80303 5.80673 6.9417C5.79552 7.08036 5.81457 7.21981 5.86259 7.35039C5.9106 7.48096 5.98641 7.59954 6.08478 7.69791C6.18316 7.79628 6.30174 7.8721 6.43231 7.92011C6.56288 7.96812 6.70233 7.98718 6.841 7.97596C6.97966 7.96475 7.11424 7.92353 7.2354 7.85516C7.35656 7.78679 7.46141 7.6929 7.54269 7.58H7.54369Z" fill="white"/>
</svg>
